<svg xmlns="http://www.w3.org/2000/svg" fill="#fff" viewBox="0 0 100 100" id="1152973838" class="svg u_1152973838" data-icon-name="li-map-marker"> <g> <path d="M69.1,25.3C64,20.2,57.2,17.4,50,17.4c-7.2,0-14,2.8-19.1,7.9c-10.5,10.5-10.5,27.6,0,38.2L50,82.6l19.1-19.1
		C79.6,53,79.6,35.8,69.1,25.3z M67.6,62L50,79.6L32.4,62c-9.7-9.7-9.7-25.5,0-35.2c4.7-4.7,11-7.3,17.6-7.3
		c6.7,0,12.9,2.6,17.6,7.3C77.3,36.5,77.3,52.3,67.6,62z"></path> 
 <path d="M50,33c-6.3,0-11.4,5.1-11.4,11.4c0,6.3,5.1,11.4,11.4,11.4c6.3,0,11.4-5.1,11.4-11.4C61.4,38.1,56.3,33,50,33z M50,53.8
		c-5.2,0-9.3-4.2-9.3-9.3c0-5.2,4.2-9.3,9.3-9.3c5.2,0,9.3,4.2,9.3,9.3C59.3,49.6,55.2,53.8,50,53.8z"></path> 
</g> 
</svg>