<svg xmlns="http://www.w3.org/2000/svg" fill="#fff" viewBox="0 0 100 100" id="1098396214" class="svg u_1098396214" data-icon-name="payment_cash"> <path d="M85.62,28.85H25a1.24,1.24,0,0,0-1.24,1.24v3.74H20a1.24,1.24,0,0,0-1.24,1.24v3.81H14.38a1.24,1.24,0,0,0-1.24,1.24V69.91a1.24,1.24,0,0,0,1.24,1.24H75a1.24,1.24,0,0,0,1.24-1.24V66.1h4.41a1.24,1.24,0,0,0,1.24-1.24V61.12h3.74a1.24,1.24,0,0,0,1.24-1.24V30.09A1.24,1.24,0,0,0,85.62,28.85ZM23.09,41.37a8.67,8.67,0,0,1-7.46,7.15V41.37Zm40.41,0a11.16,11.16,0,0,0,10.24,9.68V59A11.16,11.16,0,0,0,63.5,68.67H25.6a11.15,11.15,0,0,0-10-9.65V51a11.15,11.15,0,0,0,10-9.65Zm10.24,7.18A8.68,8.68,0,0,1,66,41.37h7.73Zm-58.11,13a8.67,8.67,0,0,1,7.46,7.15H15.63ZM66,68.67a8.68,8.68,0,0,1,7.73-7.18v7.18ZM79.4,63.61H76.23V40.13A1.24,1.24,0,0,0,75,38.88H21.28V36.31H79.4Zm5-5H81.88V35.07a1.24,1.24,0,0,0-1.24-1.24H26.26V31.33H84.37Z"></path> 
 <path d="M44.68,62.92a7.9,7.9,0,1,1,7.9-7.9A7.91,7.91,0,0,1,44.68,62.92Zm0-13.31A5.41,5.41,0,1,0,50.09,55,5.42,5.42,0,0,0,44.68,49.61Z"></path> 
</svg>