<svg xmlns="http://www.w3.org/2000/svg" fill="rgb(176,172,172)" viewBox="0 0 100 100" id="1758836824" class="svg u_1758836824" data-icon-name="li_phone"> <g> <path d="M36.2,22.1v2.2c5.5,0,10,4.5,10,10h2.2C48.4,27.6,42.9,22.1,36.2,22.1z"></path> 
 <path d="M52.4,34.3h2.2c0-4.9-1.9-9.6-5.4-13.1c-3.5-3.5-8.1-5.4-13.1-5.4V18c4.4,0,8.5,1.7,11.5,4.8C50.7,25.9,52.4,30,52.4,34.3z
		"></path> 
 <path d="M65.1,57l-7.8,7.8L38.8,46.3l7.8-7.8l-15-15L23,32.1c-4.7,4.7-4.7,12.5,0,17.2l31.3,31.3c2.3,2.3,5.4,3.6,8.6,3.6
		c3.2,0,6.3-1.3,8.6-3.6l8.6-8.6L65.1,57z M70,79.1c-1.9,1.9-4.4,2.9-7,2.9c-2.7,0-5.2-1-7-2.9L24.6,47.8c-3.9-3.9-3.9-10.2,0-14.1
		l7-7l11.9,11.9l-7.8,7.8L57.3,68l7.8-7.8L77,72L70,79.1z"></path> 
</g> 
</svg>